<svg xmlns="http://www.w3.org/2000/svg" viewBox="0 0 900 1100" role="img" aria-labelledby="title desc">
  <title id="title">Demo Aktieris</title>
  <desc id="desc">Stilizēts viettura portrets ar tumši zaļu fonu.</desc>
  <rect width="900" height="1100" fill="#1f6f57"/>
  <circle cx="700" cy="170" r="180" fill="#f0c24f" opacity=".86"/>
  <circle cx="430" cy="330" r="155" fill="#f1c6a8"/>
  <path d="M244 326c24-152 118-206 238-184 88 16 146 69 166 164-83-55-165-66-246-31-52 22-99 39-158 51z" fill="#24312b"/>
  <path d="M255 902c36-205 120-320 253-320s225 115 263 320z" fill="#d72638"/>
  <path d="M345 612c55 50 121 51 174 0v109c-58 40-116 40-174 0z" fill="#e6ad8f"/>
  <circle cx="374" cy="342" r="18" fill="#172119"/>
  <circle cx="493" cy="342" r="18" fill="#172119"/>
  <path d="M370 443c48 31 92 31 132 0" fill="none" stroke="#172119" stroke-width="18" stroke-linecap="round"/>
  <path d="M275 902h432l-72 168H340z" fill="#172119"/>
</svg>
